<svg width="159" height="158" viewBox="0 0 159 158" fill="none" xmlns="http://www.w3.org/2000/svg">
<g filter="url(#filter0_dii_5717_13)">
<path d="M76.855 16.5042C77.9522 14.2629 81.1467 14.2629 82.2439 16.5042L86.7499 25.7088C87.1846 26.5967 88.0289 27.2135 89.007 27.3577L99.1293 28.8495C101.581 29.2109 102.562 32.2212 100.794 33.9578L93.4427 41.1774C92.7421 41.8654 92.4226 42.8528 92.5873 43.8209L94.3172 53.9912C94.7347 56.4454 92.1537 58.3109 89.9543 57.1447L80.9549 52.3726C80.0759 51.9065 79.023 51.9065 78.144 52.3726L69.1446 57.1447C66.9452 58.3109 64.3642 56.4454 64.7817 53.9912L66.5116 43.8209C66.6763 42.8528 66.3568 41.8654 65.6562 41.1774L58.305 33.9578C56.5367 32.2212 57.5176 29.2109 59.9696 28.8495L70.0919 27.3577C71.07 27.2135 71.9143 26.5967 72.349 25.7088L76.855 16.5042Z" fill="url(#paint0_linear_5717_13)"/>
</g>
<defs>
<filter id="filter0_dii_5717_13" x="0.200867" y="0.522507" width="158.697" height="157.084" filterUnits="userSpaceOnUse" color-interpolation-filters="sRGB">
<feFlood flood-opacity="0" result="BackgroundImageFix"/>
<feColorMatrix in="SourceAlpha" type="matrix" values="0 0 0 0 0 0 0 0 0 0 0 0 0 0 0 0 0 0 127 0" result="hardAlpha"/>
<feOffset dy="42.9022"/>
<feGaussianBlur stdDeviation="28.6015"/>
<feComposite in2="hardAlpha" operator="out"/>
<feColorMatrix type="matrix" values="0 0 0 0 0.441638 0 0 0 0 0.245593 0 0 0 0 0.0646293 0 0 0 0.25 0"/>
<feBlend mode="normal" in2="BackgroundImageFix" result="effect1_dropShadow_5717_13"/>
<feBlend mode="normal" in="SourceGraphic" in2="effect1_dropShadow_5717_13" result="shape"/>
<feColorMatrix in="SourceAlpha" type="matrix" values="0 0 0 0 0 0 0 0 0 0 0 0 0 0 0 0 0 0 127 0" result="hardAlpha"/>
<feOffset dy="-14.3007"/>
<feGaussianBlur stdDeviation="14.3007"/>
<feComposite in2="hardAlpha" operator="arithmetic" k2="-1" k3="1"/>
<feColorMatrix type="matrix" values="0 0 0 0 0.549971 0 0 0 0 0.304646 0 0 0 0 0.0781912 0 0 0 0.57 0"/>
<feBlend mode="normal" in2="shape" result="effect2_innerShadow_5717_13"/>
<feColorMatrix in="SourceAlpha" type="matrix" values="0 0 0 0 0 0 0 0 0 0 0 0 0 0 0 0 0 0 127 0" result="hardAlpha"/>
<feOffset dy="-14.3007"/>
<feGaussianBlur stdDeviation="7.15037"/>
<feComposite in2="hardAlpha" operator="arithmetic" k2="-1" k3="1"/>
<feColorMatrix type="matrix" values="0 0 0 0 1 0 0 0 0 0.981301 0 0 0 0 0.813007 0 0 0 0.72 0"/>
<feBlend mode="normal" in2="effect2_innerShadow_5717_13" result="effect3_innerShadow_5717_13"/>
</filter>
<linearGradient id="paint0_linear_5717_13" x1="70.7227" y1="19.577" x2="80.5983" y2="54.5802" gradientUnits="userSpaceOnUse">
<stop offset="0.0001" stop-color="#FFED8C"/>
<stop offset="1" stop-color="#F4B335"/>
</linearGradient>
</defs>
</svg>
