<svg width="268" height="89" viewBox="0 0 268 89" fill="none" xmlns="http://www.w3.org/2000/svg">
<path d="M6.64258 19.8008C5.91829 20.5251 5.04753 20.8872 4.03027 20.8872C3.01302 20.8872 2.13818 20.5251 1.40576 19.8008C0.681478 19.0684 0.319336 18.1935 0.319336 17.1763C0.319336 16.159 0.681478 15.2882 1.40576 14.564C2.13818 13.8315 3.01302 13.4653 4.03027 13.4653C5.04753 13.4653 5.91829 13.8315 6.64258 14.564C7.375 15.2882 7.74121 16.159 7.74121 17.1763C7.74121 18.1935 7.375 19.0684 6.64258 19.8008Z" fill="white"/>
<path d="M16.0542 19.1538H18.2637C18.3695 20.106 18.8333 20.8709 19.6553 21.4487C20.4854 22.0265 21.5311 22.3154 22.7925 22.3154C23.9806 22.3154 24.9613 22.0347 25.7344 21.4731C26.5156 20.9035 26.9062 20.1873 26.9062 19.3247C26.9062 18.5841 26.6336 17.9738 26.0884 17.4937C25.5513 17.0135 24.6886 16.6188 23.5005 16.3096L21.2422 15.7236C19.6146 15.3086 18.4264 14.7308 17.6777 13.9902C16.929 13.2415 16.5547 12.269 16.5547 11.0728C16.5547 9.60791 17.1325 8.41162 18.2881 7.48389C19.4518 6.55615 20.9492 6.09229 22.7803 6.09229C24.5299 6.09229 25.9785 6.56429 27.126 7.5083C28.2734 8.44417 28.8716 9.6486 28.9204 11.1216H26.7231C26.6255 10.1776 26.2186 9.43294 25.5024 8.8877C24.7863 8.34245 23.8545 8.06982 22.707 8.06982C21.5677 8.06982 20.6359 8.33838 19.9116 8.87549C19.1955 9.4126 18.8374 10.1125 18.8374 10.9751C18.8374 11.6424 19.0978 12.1917 19.6187 12.623C20.1476 13.0462 21.0103 13.4124 22.2065 13.7217L24.0498 14.21C25.8727 14.6657 27.1829 15.272 27.9805 16.0288C28.778 16.7856 29.1768 17.7948 29.1768 19.0562C29.1768 20.6675 28.5827 21.9451 27.3945 22.8892C26.2145 23.825 24.6113 24.293 22.585 24.293C20.7132 24.293 19.1833 23.825 17.9951 22.8892C16.807 21.9533 16.16 20.7082 16.0542 19.1538Z" fill="white"/>
<path d="M32.0942 8.24072H34.2183V11.3047H36.6841V13.0503H34.2183V20.5942C34.2183 21.172 34.3444 21.5993 34.5967 21.876C34.849 22.1445 35.2477 22.2788 35.793 22.2788C36.1348 22.2788 36.4277 22.2585 36.6719 22.2178V24C36.3952 24.0651 35.9476 24.0977 35.3291 24.0977C34.1654 24.0977 33.3353 23.8372 32.8389 23.3164C32.3424 22.7956 32.0942 21.9248 32.0942 20.7041V13.0503H30.2021V11.3047H32.0942V8.24072Z" fill="white"/>
<path d="M42.8975 22.4131C43.8984 22.4131 44.7367 22.1038 45.4121 21.4854C46.0957 20.8587 46.4375 20.0897 46.4375 19.1782V18.1406L43.0439 18.3481C42.1895 18.4051 41.5262 18.6126 41.0542 18.9707C40.5903 19.3288 40.3584 19.8089 40.3584 20.4111C40.3584 21.0133 40.5903 21.4976 41.0542 21.8638C41.5181 22.23 42.1325 22.4131 42.8975 22.4131ZM42.4214 24.2197C41.16 24.2197 40.1387 23.8698 39.3574 23.1699C38.5843 22.4701 38.1978 21.5505 38.1978 20.4111C38.1978 19.3206 38.5965 18.4499 39.394 17.7988C40.1997 17.1478 41.335 16.7816 42.7998 16.7002L46.4375 16.4927V15.4307C46.4375 14.6576 46.1934 14.0513 45.7051 13.6118C45.2168 13.1724 44.5332 12.9526 43.6543 12.9526C42.8486 12.9526 42.1935 13.1317 41.689 13.4897C41.1844 13.8397 40.863 14.332 40.7246 14.9668H38.6738C38.7471 13.8356 39.2354 12.9079 40.1387 12.1836C41.0501 11.4512 42.2383 11.085 43.7031 11.085C45.1924 11.085 46.3724 11.4593 47.2432 12.208C48.1221 12.9567 48.5615 13.9618 48.5615 15.2231V24H46.5474V21.8149H46.4985C46.116 22.5392 45.5545 23.1211 44.814 23.5605C44.0734 24 43.2759 24.2197 42.4214 24.2197Z" fill="white"/>
<path d="M51.2593 24V11.3047H53.2612V13.3799H53.3101C53.5216 12.6719 53.9001 12.1144 54.4453 11.7075C54.9987 11.2925 55.6457 11.085 56.3862 11.085C56.5571 11.085 56.842 11.1134 57.2407 11.1704V13.2334C57.0129 13.152 56.6344 13.1113 56.1055 13.1113C55.2835 13.1113 54.6243 13.384 54.1279 13.9292C53.6315 14.4744 53.3833 15.1947 53.3833 16.0898V24H51.2593Z" fill="white"/>
<path d="M59.6577 8.24072H61.7817V11.3047H64.2476V13.0503H61.7817V20.5942C61.7817 21.172 61.9079 21.5993 62.1602 21.876C62.4124 22.1445 62.8112 22.2788 63.3564 22.2788C63.6982 22.2788 63.9912 22.2585 64.2354 22.2178V24C63.9587 24.0651 63.5111 24.0977 62.8926 24.0977C61.7288 24.0977 60.8988 23.8372 60.4023 23.3164C59.9059 22.7956 59.6577 21.9248 59.6577 20.7041V13.0503H57.7656V11.3047H59.6577V8.24072Z" fill="white"/>
<path d="M71.2422 12.9282C70.2575 12.9282 69.4396 13.27 68.7886 13.9536C68.1457 14.6291 67.7917 15.4998 67.7266 16.5659H74.6235C74.5991 15.4917 74.2777 14.6169 73.6592 13.9414C73.0407 13.266 72.235 12.9282 71.2422 12.9282ZM74.5747 20.3623H76.6621C76.4749 21.4854 75.889 22.409 74.9043 23.1333C73.9277 23.8576 72.7518 24.2197 71.3765 24.2197C69.5617 24.2197 68.1335 23.6338 67.0918 22.4619C66.0501 21.29 65.5293 19.7031 65.5293 17.7012C65.5293 15.7155 66.0501 14.1164 67.0918 12.9038C68.1416 11.6912 69.5373 11.085 71.2788 11.085C72.9878 11.085 74.3387 11.6587 75.3315 12.8062C76.3244 13.9536 76.8208 15.4917 76.8208 17.4204V18.2261H67.7144V18.3481C67.7144 19.5688 68.048 20.5454 68.7153 21.2778C69.3826 22.0103 70.286 22.3765 71.4253 22.3765C72.2228 22.3765 72.9023 22.1934 73.4639 21.8271C74.0254 21.4609 74.3957 20.9727 74.5747 20.3623Z" fill="white"/>
<path d="M83.7788 24.2197C82.1512 24.2197 80.8369 23.6216 79.8359 22.4253C78.8431 21.229 78.3467 19.638 78.3467 17.6523C78.3467 15.6748 78.8431 14.0879 79.8359 12.8916C80.8288 11.6872 82.1268 11.085 83.73 11.085C84.6252 11.085 85.4268 11.2884 86.1348 11.6953C86.8428 12.1022 87.388 12.6597 87.7705 13.3677H87.8193V6.38525H89.9434V24H87.917V21.8516H87.8804C87.4653 22.5921 86.9038 23.174 86.1958 23.5972C85.4878 24.0122 84.6821 24.2197 83.7788 24.2197ZM84.1816 12.9526C83.0586 12.9526 82.1675 13.3799 81.5083 14.2344C80.8491 15.0807 80.5195 16.2201 80.5195 17.6523C80.5195 19.0928 80.8491 20.2362 81.5083 21.0825C82.1675 21.9289 83.0586 22.3521 84.1816 22.3521C85.2803 22.3521 86.1632 21.9248 86.8306 21.0703C87.4979 20.2077 87.8315 19.0684 87.8315 17.6523C87.8315 16.2363 87.4938 15.1011 86.8184 14.2466C86.151 13.384 85.2721 12.9526 84.1816 12.9526Z" fill="white"/>
<path d="M104.104 11.085C105.731 11.085 107.041 11.6831 108.034 12.8794C109.035 14.0757 109.536 15.6667 109.536 17.6523C109.536 19.6299 109.039 21.2209 108.046 22.4253C107.054 23.6216 105.756 24.2197 104.152 24.2197C103.257 24.2197 102.456 24.0163 101.748 23.6094C101.04 23.2025 100.494 22.645 100.112 21.937H100.063V28.2358H97.939V11.3047H99.9531V13.4531H100.002C100.401 12.7207 100.958 12.1429 101.674 11.7197C102.39 11.2965 103.2 11.085 104.104 11.085ZM103.688 22.3521C104.82 22.3521 105.715 21.9289 106.374 21.0825C107.033 20.2362 107.363 19.0928 107.363 17.6523C107.363 16.2119 107.033 15.0685 106.374 14.2222C105.715 13.3758 104.82 12.9526 103.688 12.9526C102.598 12.9526 101.719 13.384 101.052 14.2466C100.384 15.1092 100.051 16.2445 100.051 17.6523C100.051 19.0684 100.384 20.2077 101.052 21.0703C101.719 21.9248 102.598 22.3521 103.688 22.3521Z" fill="white"/>
<path d="M111.684 24V11.3047H113.686V13.3799H113.735C113.946 12.6719 114.325 12.1144 114.87 11.7075C115.424 11.2925 116.07 11.085 116.811 11.085C116.982 11.085 117.267 11.1134 117.666 11.1704V13.2334C117.438 13.152 117.059 13.1113 116.53 13.1113C115.708 13.1113 115.049 13.384 114.553 13.9292C114.056 14.4744 113.808 15.1947 113.808 16.0898V24H111.684Z" fill="white"/>
<path d="M124.05 24.2197C122.276 24.2197 120.852 23.6297 119.777 22.4497C118.703 21.2616 118.166 19.6624 118.166 17.6523C118.166 15.6423 118.703 14.0472 119.777 12.8672C120.852 11.679 122.276 11.085 124.05 11.085C125.816 11.085 127.236 11.679 128.31 12.8672C129.384 14.0472 129.921 15.6423 129.921 17.6523C129.921 19.6543 129.384 21.2493 128.31 22.4375C127.236 23.6257 125.816 24.2197 124.05 24.2197ZM121.328 21.1069C122.003 21.937 122.91 22.3521 124.05 22.3521C125.189 22.3521 126.092 21.9411 126.76 21.1191C127.427 20.2891 127.761 19.1335 127.761 17.6523C127.761 16.1712 127.427 15.0197 126.76 14.1978C126.092 13.3677 125.189 12.9526 124.05 12.9526C122.91 12.9526 122.003 13.3677 121.328 14.1978C120.66 15.0278 120.327 16.1794 120.327 17.6523C120.327 19.1253 120.66 20.2769 121.328 21.1069Z" fill="white"/>
<path d="M134.304 11.3047V24.6226C134.304 25.9084 133.986 26.8524 133.352 27.4546C132.717 28.0649 131.724 28.3701 130.373 28.3701C130.121 28.3701 129.986 28.366 129.97 28.3579V26.5879H130.3C130.992 26.5879 131.476 26.4414 131.752 26.1484C132.037 25.8555 132.18 25.355 132.18 24.647V11.3047H134.304ZM133.242 9.16846C132.884 9.16846 132.574 9.03825 132.314 8.77783C132.054 8.51742 131.923 8.20817 131.923 7.8501C131.923 7.48389 132.054 7.17464 132.314 6.92236C132.574 6.66195 132.884 6.53174 133.242 6.53174C133.608 6.53174 133.921 6.66195 134.182 6.92236C134.442 7.17464 134.572 7.48389 134.572 7.8501C134.572 8.20817 134.442 8.51742 134.182 8.77783C133.921 9.03825 133.608 9.16846 133.242 9.16846Z" fill="white"/>
<path d="M142.263 12.9282C141.278 12.9282 140.46 13.27 139.809 13.9536C139.166 14.6291 138.812 15.4998 138.747 16.5659H145.644C145.62 15.4917 145.298 14.6169 144.68 13.9414C144.061 13.266 143.256 12.9282 142.263 12.9282ZM145.595 20.3623H147.683C147.495 21.4854 146.91 22.409 145.925 23.1333C144.948 23.8576 143.772 24.2197 142.397 24.2197C140.582 24.2197 139.154 23.6338 138.112 22.4619C137.071 21.29 136.55 19.7031 136.55 17.7012C136.55 15.7155 137.071 14.1164 138.112 12.9038C139.162 11.6912 140.558 11.085 142.299 11.085C144.008 11.085 145.359 11.6587 146.352 12.8062C147.345 13.9536 147.841 15.4917 147.841 17.4204V18.2261H138.735V18.3481C138.735 19.5688 139.069 20.5454 139.736 21.2778C140.403 22.0103 141.306 22.3765 142.446 22.3765C143.243 22.3765 143.923 22.1934 144.484 21.8271C145.046 21.4609 145.416 20.9727 145.595 20.3623Z" fill="white"/>
<path d="M160.537 15.4673H158.461C158.299 14.7349 157.937 14.1326 157.375 13.6606C156.822 13.1886 156.101 12.9526 155.214 12.9526C154.108 12.9526 153.216 13.3799 152.541 14.2344C151.866 15.0807 151.528 16.2201 151.528 17.6523C151.528 19.109 151.866 20.2565 152.541 21.0947C153.225 21.9329 154.124 22.3521 155.239 22.3521C156.093 22.3521 156.797 22.1405 157.351 21.7173C157.912 21.286 158.286 20.6838 158.474 19.9106H160.561C160.398 21.1802 159.825 22.2178 158.84 23.0234C157.863 23.821 156.659 24.2197 155.227 24.2197C153.452 24.2197 152.032 23.6338 150.966 22.4619C149.9 21.2819 149.367 19.6787 149.367 17.6523C149.367 15.6585 149.9 14.0675 150.966 12.8794C152.032 11.6831 153.444 11.085 155.202 11.085C156.716 11.085 157.945 11.5122 158.889 12.3667C159.841 13.2212 160.39 14.2547 160.537 15.4673Z" fill="white"/>
<path d="M163.198 8.24072H165.322V11.3047H167.788V13.0503H165.322V20.5942C165.322 21.172 165.448 21.5993 165.7 21.876C165.952 22.1445 166.351 22.2788 166.896 22.2788C167.238 22.2788 167.531 22.2585 167.775 22.2178V24C167.499 24.0651 167.051 24.0977 166.433 24.0977C165.269 24.0977 164.439 23.8372 163.942 23.3164C163.446 22.7956 163.198 21.9248 163.198 20.7041V13.0503H161.306V11.3047H163.198V8.24072Z" fill="white"/>
<path d="M173.806 25.75H198.806V0.75H173.806V25.75Z" fill="white"/>
<path d="M6.64258 49.8008C5.91829 50.5251 5.04753 50.8872 4.03027 50.8872C3.01302 50.8872 2.13818 50.5251 1.40576 49.8008C0.681478 49.0684 0.319336 48.1935 0.319336 47.1763C0.319336 46.159 0.681478 45.2882 1.40576 44.564C2.13818 43.8315 3.01302 43.4653 4.03027 43.4653C5.04753 43.4653 5.91829 43.8315 6.64258 44.564C7.375 45.2882 7.74121 46.159 7.74121 47.1763C7.74121 48.1935 7.375 49.0684 6.64258 49.8008Z" fill="white"/>
<path d="M23.5493 54H16.8965V36.3853H23.5737C25.0793 36.3853 26.2959 36.7881 27.2236 37.5938C28.1595 38.3994 28.6274 39.4614 28.6274 40.7798C28.6274 41.6994 28.3304 42.5335 27.7363 43.2822C27.1504 44.0228 26.4342 44.4704 25.5879 44.625V44.7227C26.7842 44.8773 27.7363 45.3452 28.4443 46.1265C29.1605 46.9077 29.5186 47.8843 29.5186 49.0562C29.5186 50.6105 28.9896 51.8231 27.9316 52.6938C26.8818 53.5646 25.4211 54 23.5493 54ZM19.0938 38.3262V43.978H22.3896C23.6917 43.978 24.6846 43.7257 25.3682 43.2212C26.0599 42.7166 26.4058 41.9883 26.4058 41.0361C26.4058 40.1654 26.1169 39.498 25.5391 39.0342C24.9613 38.5622 24.1393 38.3262 23.0732 38.3262H19.0938ZM19.0938 52.0591H23.2197C24.5462 52.0591 25.5513 51.7946 26.2349 51.2656C26.9185 50.7367 27.2603 49.9635 27.2603 48.9463C27.2603 46.8955 25.8442 45.8701 23.0122 45.8701H19.0938V52.0591Z" fill="white"/>
<path d="M42.104 41.3047V54H40.0898V51.937H40.041C39.2516 53.4588 37.9089 54.2197 36.0127 54.2197C34.6374 54.2197 33.5591 53.8047 32.7778 52.9746C32.0047 52.1364 31.6182 50.993 31.6182 49.5444V41.3047H33.7422V49.166C33.7422 51.2819 34.7188 52.3398 36.6719 52.3398C37.6973 52.3398 38.5029 52.0184 39.0889 51.3755C39.6829 50.7244 39.98 49.8537 39.98 48.7632V41.3047H42.104Z" fill="white"/>
<path d="M49.6724 54.2197C48.0448 54.2197 46.7305 53.6216 45.7295 52.4253C44.7367 51.229 44.2402 49.638 44.2402 47.6523C44.2402 45.6748 44.7367 44.0879 45.7295 42.8916C46.7223 41.6872 48.0203 41.085 49.6235 41.085C50.5187 41.085 51.3203 41.2884 52.0283 41.6953C52.7363 42.1022 53.2816 42.6597 53.6641 43.3677H53.7129V36.3853H55.8369V54H53.8105V51.8516H53.7739C53.3589 52.5921 52.7974 53.174 52.0894 53.5972C51.3813 54.0122 50.5757 54.2197 49.6724 54.2197ZM50.0752 42.9526C48.9521 42.9526 48.061 43.3799 47.4019 44.2344C46.7427 45.0807 46.4131 46.2201 46.4131 47.6523C46.4131 49.0928 46.7427 50.2362 47.4019 51.0825C48.061 51.9289 48.9521 52.3521 50.0752 52.3521C51.1738 52.3521 52.0568 51.9248 52.7241 51.0703C53.3914 50.2077 53.7251 49.0684 53.7251 47.6523C53.7251 46.2363 53.3874 45.1011 52.7119 44.2466C52.0446 43.384 51.1657 42.9526 50.0752 42.9526Z" fill="white"/>
<path d="M63.8691 52.23C64.9759 52.23 65.867 51.8068 66.5425 50.9604C67.2179 50.1141 67.5557 48.9951 67.5557 47.6035C67.5557 46.2038 67.2179 45.0807 66.5425 44.2344C65.867 43.3799 64.9759 42.9526 63.8691 42.9526C62.7705 42.9526 61.8916 43.3758 61.2324 44.2222C60.5814 45.0604 60.2559 46.1875 60.2559 47.6035C60.2559 49.0195 60.5814 50.1466 61.2324 50.9849C61.8916 51.8149 62.7705 52.23 63.8691 52.23ZM63.9424 58.7852C62.5508 58.7852 61.3545 58.4312 60.3535 57.7231C59.3525 57.0233 58.7625 56.1322 58.5835 55.0498H60.7686C60.9801 55.6357 61.3789 56.1037 61.9648 56.4536C62.5508 56.8035 63.2384 56.9785 64.0278 56.9785C65.1183 56.9785 65.9769 56.6896 66.6035 56.1118C67.2383 55.534 67.5557 54.769 67.5557 53.8169V51.8149H67.5068C67.1081 52.5148 66.5506 53.0723 65.8345 53.4873C65.1183 53.8942 64.3208 54.0977 63.4419 54.0977C61.8224 54.0977 60.5244 53.5076 59.5479 52.3276C58.5713 51.1476 58.083 49.5729 58.083 47.6035C58.083 45.6178 58.5713 44.035 59.5479 42.855C60.5326 41.675 61.8468 41.085 63.4907 41.085C64.3859 41.085 65.1916 41.2925 65.9077 41.7075C66.6239 42.1226 67.1935 42.7004 67.6167 43.4409H67.6533V41.3047H69.6797V53.7437C69.6797 55.2655 69.1589 56.4862 68.1172 57.4058C67.0755 58.3254 65.6839 58.7852 63.9424 58.7852Z" fill="white"/>
<path d="M77.541 42.9282C76.5563 42.9282 75.7384 43.27 75.0874 43.9536C74.4445 44.6291 74.0905 45.4998 74.0254 46.5659H80.9224C80.8979 45.4917 80.5765 44.6169 79.958 43.9414C79.3395 43.266 78.5339 42.9282 77.541 42.9282ZM80.8735 50.3623H82.9609C82.7738 51.4854 82.1878 52.409 81.2031 53.1333C80.2266 53.8576 79.0506 54.2197 77.6753 54.2197C75.8605 54.2197 74.4323 53.6338 73.3906 52.4619C72.349 51.29 71.8281 49.7031 71.8281 47.7012C71.8281 45.7155 72.349 44.1164 73.3906 42.9038C74.4404 41.6912 75.8361 41.085 77.5776 41.085C79.2866 41.085 80.6375 41.6587 81.6304 42.8062C82.6232 43.9536 83.1196 45.4917 83.1196 47.4204V48.2261H74.0132V48.3481C74.0132 49.5688 74.3468 50.5454 75.0142 51.2778C75.6815 52.0103 76.5848 52.3765 77.7241 52.3765C78.5216 52.3765 79.2012 52.1934 79.7627 51.8271C80.3242 51.4609 80.6945 50.9727 80.8735 50.3623Z" fill="white"/>
<path d="M85.9517 38.2407H88.0757V41.3047H90.5415V43.0503H88.0757V50.5942C88.0757 51.172 88.2018 51.5993 88.4541 51.876C88.7064 52.1445 89.1051 52.2788 89.6504 52.2788C89.9922 52.2788 90.2852 52.2585 90.5293 52.2178V54C90.2526 54.0651 89.805 54.0977 89.1865 54.0977C88.0228 54.0977 87.1927 53.8372 86.6963 53.3164C86.1999 52.7956 85.9517 51.9248 85.9517 50.7041V43.0503H84.0596V41.3047H85.9517V38.2407Z" fill="white"/>
<path d="M102.126 52.4131C103.127 52.4131 103.965 52.1038 104.641 51.4854C105.324 50.8587 105.666 50.0897 105.666 49.1782V48.1406L102.272 48.3481C101.418 48.4051 100.755 48.6126 100.283 48.9707C99.8188 49.3288 99.5869 49.8089 99.5869 50.4111C99.5869 51.0133 99.8188 51.4976 100.283 51.8638C100.747 52.23 101.361 52.4131 102.126 52.4131ZM101.65 54.2197C100.389 54.2197 99.3672 53.8698 98.5859 53.1699C97.8128 52.4701 97.4263 51.5505 97.4263 50.4111C97.4263 49.3206 97.825 48.4499 98.6226 47.7988C99.4282 47.1478 100.563 46.7816 102.028 46.7002L105.666 46.4927V45.4307C105.666 44.6576 105.422 44.0513 104.934 43.6118C104.445 43.1724 103.762 42.9526 102.883 42.9526C102.077 42.9526 101.422 43.1317 100.917 43.4897C100.413 43.8397 100.091 44.332 99.9531 44.9668H97.9023C97.9756 43.8356 98.4639 42.9079 99.3672 42.1836C100.279 41.4512 101.467 41.085 102.932 41.085C104.421 41.085 105.601 41.4593 106.472 42.208C107.351 42.9567 107.79 43.9618 107.79 45.2231V54H105.776V51.8149H105.727C105.345 52.5392 104.783 53.1211 104.042 53.5605C103.302 54 102.504 54.2197 101.65 54.2197Z" fill="white"/>
<path d="M121.035 45.4673H118.959C118.797 44.7349 118.435 44.1326 117.873 43.6606C117.32 43.1886 116.599 42.9526 115.712 42.9526C114.606 42.9526 113.715 43.3799 113.039 44.2344C112.364 45.0807 112.026 46.2201 112.026 47.6523C112.026 49.109 112.364 50.2565 113.039 51.0947C113.723 51.9329 114.622 52.3521 115.737 52.3521C116.591 52.3521 117.295 52.1405 117.849 51.7173C118.41 51.286 118.785 50.6838 118.972 49.9106H121.059C120.896 51.1802 120.323 52.2178 119.338 53.0234C118.361 53.821 117.157 54.2197 115.725 54.2197C113.951 54.2197 112.53 53.6338 111.464 52.4619C110.398 51.2819 109.865 49.6787 109.865 47.6523C109.865 45.6585 110.398 44.0675 111.464 42.8794C112.53 41.6831 113.942 41.085 115.7 41.085C117.214 41.085 118.443 41.5122 119.387 42.3667C120.339 43.2212 120.888 44.2547 121.035 45.4673Z" fill="white"/>
<path d="M133.559 45.4673H131.484C131.321 44.7349 130.959 44.1326 130.397 43.6606C129.844 43.1886 129.124 42.9526 128.237 42.9526C127.13 42.9526 126.239 43.3799 125.563 44.2344C124.888 45.0807 124.55 46.2201 124.55 47.6523C124.55 49.109 124.888 50.2565 125.563 51.0947C126.247 51.9329 127.146 52.3521 128.261 52.3521C129.116 52.3521 129.82 52.1405 130.373 51.7173C130.935 51.286 131.309 50.6838 131.496 49.9106H133.583C133.421 51.1802 132.847 52.2178 131.862 53.0234C130.886 53.821 129.681 54.2197 128.249 54.2197C126.475 54.2197 125.055 53.6338 123.989 52.4619C122.923 51.2819 122.39 49.6787 122.39 47.6523C122.39 45.6585 122.923 44.0675 123.989 42.8794C125.055 41.6831 126.467 41.085 128.225 41.085C129.738 41.085 130.967 41.5122 131.911 42.3667C132.863 43.2212 133.413 44.2547 133.559 45.4673Z" fill="white"/>
<path d="M145.961 41.3047V54H143.947V51.937H143.898C143.109 53.4588 141.766 54.2197 139.87 54.2197C138.495 54.2197 137.417 53.8047 136.635 52.9746C135.862 52.1364 135.476 50.993 135.476 49.5444V41.3047H137.6V49.166C137.6 51.2819 138.576 52.3398 140.529 52.3398C141.555 52.3398 142.36 52.0184 142.946 51.3755C143.54 50.7244 143.837 49.8537 143.837 48.7632V41.3047H145.961Z" fill="white"/>
<path d="M148.72 54V41.3047H150.722V43.3311H150.771C151.08 42.6393 151.548 42.0941 152.175 41.6953C152.801 41.2884 153.534 41.085 154.372 41.085C155.235 41.085 155.975 41.2965 156.594 41.7197C157.212 42.1348 157.66 42.7288 157.937 43.502H157.985C158.335 42.7451 158.86 42.1551 159.56 41.7319C160.268 41.3006 161.07 41.085 161.965 41.085C163.218 41.085 164.219 41.4634 164.968 42.2202C165.725 42.9689 166.103 43.974 166.103 45.2354V54H163.979V45.7236C163.979 44.8529 163.747 44.1774 163.283 43.6973C162.827 43.209 162.181 42.9648 161.342 42.9648C160.504 42.9648 159.816 43.2456 159.279 43.8071C158.742 44.3605 158.474 45.0685 158.474 45.9312V54H156.35V45.4917C156.35 44.7267 156.114 44.1164 155.642 43.6606C155.17 43.1968 154.539 42.9648 153.75 42.9648C152.911 42.9648 152.215 43.2578 151.662 43.8438C151.117 44.4297 150.844 45.1621 150.844 46.041V54H148.72Z" fill="white"/>
<path d="M179.238 41.3047V54H177.224V51.937H177.175C176.385 53.4588 175.043 54.2197 173.146 54.2197C171.771 54.2197 170.693 53.8047 169.912 52.9746C169.139 52.1364 168.752 50.993 168.752 49.5444V41.3047H170.876V49.166C170.876 51.2819 171.853 52.3398 173.806 52.3398C174.831 52.3398 175.637 52.0184 176.223 51.3755C176.817 50.7244 177.114 49.8537 177.114 48.7632V41.3047H179.238Z" fill="white"/>
<path d="M182.106 54V36.3853H184.23V54H182.106Z" fill="white"/>
<path d="M191.286 52.4131C192.287 52.4131 193.125 52.1038 193.801 51.4854C194.484 50.8587 194.826 50.0897 194.826 49.1782V48.1406L191.433 48.3481C190.578 48.4051 189.915 48.6126 189.443 48.9707C188.979 49.3288 188.747 49.8089 188.747 50.4111C188.747 51.0133 188.979 51.4976 189.443 51.8638C189.907 52.23 190.521 52.4131 191.286 52.4131ZM190.81 54.2197C189.549 54.2197 188.527 53.8698 187.746 53.1699C186.973 52.4701 186.586 51.5505 186.586 50.4111C186.586 49.3206 186.985 48.4499 187.783 47.7988C188.588 47.1478 189.724 46.7816 191.188 46.7002L194.826 46.4927V45.4307C194.826 44.6576 194.582 44.0513 194.094 43.6118C193.605 43.1724 192.922 42.9526 192.043 42.9526C191.237 42.9526 190.582 43.1317 190.078 43.4897C189.573 43.8397 189.252 44.332 189.113 44.9668H187.062C187.136 43.8356 187.624 42.9079 188.527 42.1836C189.439 41.4512 190.627 41.085 192.092 41.085C193.581 41.085 194.761 41.4593 195.632 42.208C196.511 42.9567 196.95 43.9618 196.95 45.2231V54H194.936V51.8149H194.887C194.505 52.5392 193.943 53.1211 193.203 53.5605C192.462 54 191.665 54.2197 190.81 54.2197Z" fill="white"/>
<path d="M200.332 38.2407H202.456V41.3047H204.921V43.0503H202.456V50.5942C202.456 51.172 202.582 51.5993 202.834 51.876C203.086 52.1445 203.485 52.2788 204.03 52.2788C204.372 52.2788 204.665 52.2585 204.909 52.2178V54C204.632 54.0651 204.185 54.0977 203.566 54.0977C202.403 54.0977 201.573 53.8372 201.076 53.3164C200.58 52.7956 200.332 51.9248 200.332 50.7041V43.0503H198.439V41.3047H200.332V38.2407Z" fill="white"/>
<path d="M207.302 54V41.3047H209.426V54H207.302ZM208.364 39.1685C208.006 39.1685 207.696 39.0382 207.436 38.7778C207.176 38.5174 207.045 38.2082 207.045 37.8501C207.045 37.4839 207.176 37.1746 207.436 36.9224C207.696 36.6619 208.006 36.5317 208.364 36.5317C208.73 36.5317 209.043 36.6619 209.304 36.9224C209.564 37.1746 209.694 37.4839 209.694 37.8501C209.694 38.2082 209.564 38.5174 209.304 38.7778C209.043 39.0382 208.73 39.1685 208.364 39.1685Z" fill="white"/>
<path d="M217.556 54.2197C215.782 54.2197 214.357 53.6297 213.283 52.4497C212.209 51.2616 211.672 49.6624 211.672 47.6523C211.672 45.6423 212.209 44.0472 213.283 42.8672C214.357 41.679 215.782 41.085 217.556 41.085C219.322 41.085 220.742 41.679 221.816 42.8672C222.89 44.0472 223.427 45.6423 223.427 47.6523C223.427 49.6543 222.89 51.2493 221.816 52.4375C220.742 53.6257 219.322 54.2197 217.556 54.2197ZM214.833 51.1069C215.509 51.937 216.416 52.3521 217.556 52.3521C218.695 52.3521 219.598 51.9411 220.266 51.1191C220.933 50.2891 221.267 49.1335 221.267 47.6523C221.267 46.1712 220.933 45.0197 220.266 44.1978C219.598 43.3677 218.695 42.9526 217.556 42.9526C216.416 42.9526 215.509 43.3677 214.833 44.1978C214.166 45.0278 213.833 46.1794 213.833 47.6523C213.833 49.1253 214.166 50.2769 214.833 51.1069Z" fill="white"/>
<path d="M225.576 54V41.3047H227.578V43.3311H227.626C227.993 42.623 228.518 42.0737 229.201 41.6831C229.885 41.2843 230.703 41.085 231.655 41.085C233.038 41.085 234.117 41.5041 234.89 42.3423C235.663 43.1724 236.049 44.3117 236.049 45.7603V54H233.925V46.1387C233.925 45.1051 233.681 44.3198 233.193 43.7827C232.705 43.2375 231.976 42.9648 231.008 42.9648C230.007 42.9648 229.205 43.2904 228.603 43.9414C228.001 44.5924 227.7 45.4551 227.7 46.5293V54H225.576Z" fill="white"/>
<path d="M242.507 55.75H267.507V30.75H242.507V55.75Z" fill="white"/>
<path d="M6.64258 79.8008C5.91829 80.5251 5.04753 80.8872 4.03027 80.8872C3.01302 80.8872 2.13818 80.5251 1.40576 79.8008C0.681478 79.0684 0.319336 78.1935 0.319336 77.1763C0.319336 76.159 0.681478 75.2882 1.40576 74.564C2.13818 73.8315 3.01302 73.4653 4.03027 73.4653C5.04753 73.4653 5.91829 73.8315 6.64258 74.564C7.375 75.2882 7.74121 76.159 7.74121 77.1763C7.74121 78.1935 7.375 79.0684 6.64258 79.8008Z" fill="white"/>
<path d="M26.6743 70.0229L22.6094 84H20.5342L15.7368 66.3853H18.0317L21.5596 80.7651H21.6572L25.6245 66.3853H27.8462L31.8135 80.7651H31.9111L35.439 66.3853H37.7339L32.9365 84H30.8613L26.7964 70.0229H26.6743Z" fill="white"/>
<path d="M39.7725 84V71.3047H41.8965V84H39.7725ZM40.8345 69.1685C40.4764 69.1685 40.1672 69.0382 39.9067 68.7778C39.6463 68.5174 39.5161 68.2082 39.5161 67.8501C39.5161 67.4839 39.6463 67.1746 39.9067 66.9224C40.1672 66.6619 40.4764 66.5317 40.8345 66.5317C41.2007 66.5317 41.514 66.6619 41.7744 66.9224C42.0348 67.1746 42.165 67.4839 42.165 67.8501C42.165 68.2082 42.0348 68.5174 41.7744 68.7778C41.514 69.0382 41.2007 69.1685 40.8345 69.1685Z" fill="white"/>
<path d="M44.7651 84V71.3047H46.7671V73.3311H46.8159C47.1821 72.623 47.707 72.0737 48.3906 71.6831C49.0742 71.2843 49.8921 71.085 50.8442 71.085C52.2277 71.085 53.306 71.5041 54.0791 72.3423C54.8522 73.1724 55.2388 74.3117 55.2388 75.7603V84H53.1147V76.1387C53.1147 75.1051 52.8706 74.3198 52.3823 73.7827C51.894 73.2375 51.1657 72.9648 50.1973 72.9648C49.1963 72.9648 48.3947 73.2904 47.7925 73.9414C47.1903 74.5924 46.8892 75.4551 46.8892 76.5293V84H44.7651Z" fill="white"/>
<path d="M57.9487 84V71.3047H59.9507V73.3311H59.9995C60.3657 72.623 60.8906 72.0737 61.5742 71.6831C62.2578 71.2843 63.0757 71.085 64.0278 71.085C65.4113 71.085 66.4896 71.5041 67.2627 72.3423C68.0358 73.1724 68.4224 74.3117 68.4224 75.7603V84H66.2983V76.1387C66.2983 75.1051 66.0542 74.3198 65.5659 73.7827C65.0776 73.2375 64.3493 72.9648 63.3809 72.9648C62.3799 72.9648 61.5783 73.2904 60.9761 73.9414C60.3739 74.5924 60.0728 75.4551 60.0728 76.5293V84H57.9487Z" fill="white"/>
<path d="M71.2422 84V71.3047H73.3662V84H71.2422ZM72.3042 69.1685C71.9461 69.1685 71.6369 69.0382 71.3765 68.7778C71.116 68.5174 70.9858 68.2082 70.9858 67.8501C70.9858 67.4839 71.116 67.1746 71.3765 66.9224C71.6369 66.6619 71.9461 66.5317 72.3042 66.5317C72.6704 66.5317 72.9837 66.6619 73.2441 66.9224C73.5046 67.1746 73.6348 67.4839 73.6348 67.8501C73.6348 68.2082 73.5046 68.5174 73.2441 68.7778C72.9837 69.0382 72.6704 69.1685 72.3042 69.1685Z" fill="white"/>
<path d="M76.2349 84V71.3047H78.2368V73.3311H78.2856C78.6519 72.623 79.1768 72.0737 79.8604 71.6831C80.5439 71.2843 81.3618 71.085 82.314 71.085C83.6974 71.085 84.7757 71.5041 85.5488 72.3423C86.3219 73.1724 86.7085 74.3117 86.7085 75.7603V84H84.5845V76.1387C84.5845 75.1051 84.3403 74.3198 83.8521 73.7827C83.3638 73.2375 82.6354 72.9648 81.667 72.9648C80.666 72.9648 79.8644 73.2904 79.2622 73.9414C78.66 74.5924 78.3589 75.4551 78.3589 76.5293V84H76.2349Z" fill="white"/>
<path d="M94.582 82.23C95.6888 82.23 96.5799 81.8068 97.2554 80.9604C97.9308 80.1141 98.2686 78.9951 98.2686 77.6035C98.2686 76.2038 97.9308 75.0807 97.2554 74.2344C96.5799 73.3799 95.6888 72.9526 94.582 72.9526C93.4834 72.9526 92.6045 73.3758 91.9453 74.2222C91.2943 75.0604 90.9688 76.1875 90.9688 77.6035C90.9688 79.0195 91.2943 80.1466 91.9453 80.9849C92.6045 81.8149 93.4834 82.23 94.582 82.23ZM94.6553 88.7852C93.2637 88.7852 92.0674 88.4312 91.0664 87.7231C90.0654 87.0233 89.4754 86.1322 89.2964 85.0498H91.4814C91.693 85.6357 92.0918 86.1037 92.6777 86.4536C93.2637 86.8035 93.9513 86.9785 94.7407 86.9785C95.8312 86.9785 96.6898 86.6896 97.3164 86.1118C97.9512 85.534 98.2686 84.769 98.2686 83.8169V81.8149H98.2197C97.821 82.5148 97.2635 83.0723 96.5474 83.4873C95.8312 83.8942 95.0337 84.0977 94.1548 84.0977C92.5353 84.0977 91.2373 83.5076 90.2607 82.3276C89.2842 81.1476 88.7959 79.5729 88.7959 77.6035C88.7959 75.6178 89.2842 74.035 90.2607 72.855C91.2454 71.675 92.5597 71.085 94.2036 71.085C95.0988 71.085 95.9045 71.2925 96.6206 71.7075C97.3368 72.1226 97.9064 72.7004 98.3296 73.4409H98.3662V71.3047H100.393V83.7437C100.393 85.2655 99.8717 86.4862 98.8301 87.4058C97.7884 88.3254 96.3968 88.7852 94.6553 88.7852Z" fill="white"/>
<path d="M108.974 68.2407H111.098V71.3047H113.564V73.0503H111.098V80.5942C111.098 81.172 111.224 81.5993 111.477 81.876C111.729 82.1445 112.128 82.2788 112.673 82.2788C113.015 82.2788 113.308 82.2585 113.552 82.2178V84C113.275 84.0651 112.827 84.0977 112.209 84.0977C111.045 84.0977 110.215 83.8372 109.719 83.3164C109.222 82.7956 108.974 81.9248 108.974 80.7041V73.0503H107.082V71.3047H108.974V68.2407Z" fill="white"/>
<path d="M120.559 72.9282C119.574 72.9282 118.756 73.27 118.105 73.9536C117.462 74.6291 117.108 75.4998 117.043 76.5659H123.94C123.916 75.4917 123.594 74.6169 122.976 73.9414C122.357 73.266 121.551 72.9282 120.559 72.9282ZM123.891 80.3623H125.979C125.791 81.4854 125.205 82.409 124.221 83.1333C123.244 83.8576 122.068 84.2197 120.693 84.2197C118.878 84.2197 117.45 83.6338 116.408 82.4619C115.367 81.29 114.846 79.7031 114.846 77.7012C114.846 75.7155 115.367 74.1164 116.408 72.9038C117.458 71.6912 118.854 71.085 120.595 71.085C122.304 71.085 123.655 71.6587 124.648 72.8062C125.641 73.9536 126.137 75.4917 126.137 77.4204V78.2261H117.031V78.3481C117.031 79.5688 117.364 80.5454 118.032 81.2778C118.699 82.0103 119.602 82.3765 120.742 82.3765C121.539 82.3765 122.219 82.1934 122.78 81.8271C123.342 81.4609 123.712 80.9727 123.891 80.3623Z" fill="white"/>
<path d="M132.473 82.4131C133.474 82.4131 134.312 82.1038 134.987 81.4854C135.671 80.8587 136.013 80.0897 136.013 79.1782V78.1406L132.619 78.3481C131.765 78.4051 131.101 78.6126 130.629 78.9707C130.166 79.3288 129.934 79.8089 129.934 80.4111C129.934 81.0133 130.166 81.4976 130.629 81.8638C131.093 82.23 131.708 82.4131 132.473 82.4131ZM131.997 84.2197C130.735 84.2197 129.714 83.8698 128.933 83.1699C128.16 82.4701 127.773 81.5505 127.773 80.4111C127.773 79.3206 128.172 78.4499 128.969 77.7988C129.775 77.1478 130.91 76.7816 132.375 76.7002L136.013 76.4927V75.4307C136.013 74.6576 135.769 74.0513 135.28 73.6118C134.792 73.1724 134.108 72.9526 133.229 72.9526C132.424 72.9526 131.769 73.1317 131.264 73.4897C130.76 73.8397 130.438 74.332 130.3 74.9668H128.249C128.322 73.8356 128.811 72.9079 129.714 72.1836C130.625 71.4512 131.813 71.085 133.278 71.085C134.768 71.085 135.948 71.4593 136.818 72.208C137.697 72.9567 138.137 73.9618 138.137 75.2231V84H136.123V81.8149H136.074C135.691 82.5392 135.13 83.1211 134.389 83.5605C133.649 84 132.851 84.2197 131.997 84.2197Z" fill="white"/>
<path d="M140.834 84V71.3047H142.836V73.3311H142.885C143.194 72.6393 143.662 72.0941 144.289 71.6953C144.916 71.2884 145.648 71.085 146.486 71.085C147.349 71.085 148.09 71.2965 148.708 71.7197C149.326 72.1348 149.774 72.7288 150.051 73.502H150.1C150.45 72.7451 150.974 72.1551 151.674 71.7319C152.382 71.3006 153.184 71.085 154.079 71.085C155.332 71.085 156.333 71.4634 157.082 72.2202C157.839 72.9689 158.217 73.974 158.217 75.2354V84H156.093V75.7236C156.093 74.8529 155.861 74.1774 155.397 73.6973C154.942 73.209 154.295 72.9648 153.457 72.9648C152.618 72.9648 151.931 73.2456 151.394 73.8071C150.856 74.3605 150.588 75.0685 150.588 75.9312V84H148.464V75.4917C148.464 74.7267 148.228 74.1164 147.756 73.6606C147.284 73.1968 146.653 72.9648 145.864 72.9648C145.026 72.9648 144.33 73.2578 143.776 73.8438C143.231 74.4297 142.958 75.1621 142.958 76.041V84H140.834Z" fill="white"/>
<path d="M165.834 74.8081C165.834 73.7176 166.274 72.8265 167.153 72.1348C168.04 71.4349 169.179 71.085 170.571 71.085C171.881 71.085 172.972 71.4349 173.842 72.1348C174.713 72.8346 175.173 73.7217 175.222 74.7959H173.195C173.122 74.1774 172.845 73.6932 172.365 73.3433C171.893 72.9933 171.271 72.8184 170.498 72.8184C169.724 72.8184 169.102 72.9933 168.63 73.3433C168.158 73.6851 167.922 74.1367 167.922 74.6982C167.922 75.5609 168.626 76.1712 170.034 76.5293L171.999 77.0054C173.277 77.3309 174.176 77.7541 174.697 78.2749C175.226 78.7876 175.49 79.5119 175.49 80.4478C175.49 81.5545 175.018 82.4619 174.074 83.1699C173.13 83.8698 171.918 84.2197 170.437 84.2197C169.053 84.2197 167.91 83.8779 167.006 83.1943C166.111 82.5026 165.607 81.5911 165.493 80.46H167.617C167.853 81.8109 168.837 82.4863 170.571 82.4863C171.425 82.4863 172.101 82.3195 172.597 81.9858C173.102 81.644 173.354 81.1842 173.354 80.6064C173.354 80.1507 173.203 79.7886 172.902 79.52C172.609 79.2515 172.109 79.0236 171.401 78.8364L169.167 78.2627C166.945 77.693 165.834 76.5415 165.834 74.8081Z" fill="white"/>
<path d="M182.79 72.9282C181.805 72.9282 180.987 73.27 180.336 73.9536C179.694 74.6291 179.34 75.4998 179.274 76.5659H186.171C186.147 75.4917 185.826 74.6169 185.207 73.9414C184.589 73.266 183.783 72.9282 182.79 72.9282ZM186.123 80.3623H188.21C188.023 81.4854 187.437 82.409 186.452 83.1333C185.476 83.8576 184.3 84.2197 182.924 84.2197C181.11 84.2197 179.681 83.6338 178.64 82.4619C177.598 81.29 177.077 79.7031 177.077 77.7012C177.077 75.7155 177.598 74.1164 178.64 72.9038C179.689 71.6912 181.085 71.085 182.827 71.085C184.536 71.085 185.887 71.6587 186.879 72.8062C187.872 73.9536 188.369 75.4917 188.369 77.4204V78.2261H179.262V78.3481C179.262 79.5688 179.596 80.5454 180.263 81.2778C180.931 82.0103 181.834 82.3765 182.973 82.3765C183.771 82.3765 184.45 82.1934 185.012 81.8271C185.573 81.4609 185.944 80.9727 186.123 80.3623Z" fill="white"/>
<path d="M194.704 82.4131C195.705 82.4131 196.543 82.1038 197.219 81.4854C197.902 80.8587 198.244 80.0897 198.244 79.1782V78.1406L194.851 78.3481C193.996 78.4051 193.333 78.6126 192.861 78.9707C192.397 79.3288 192.165 79.8089 192.165 80.4111C192.165 81.0133 192.397 81.4976 192.861 81.8638C193.325 82.23 193.939 82.4131 194.704 82.4131ZM194.228 84.2197C192.967 84.2197 191.945 83.8698 191.164 83.1699C190.391 82.4701 190.004 81.5505 190.004 80.4111C190.004 79.3206 190.403 78.4499 191.201 77.7988C192.006 77.1478 193.142 76.7816 194.606 76.7002L198.244 76.4927V75.4307C198.244 74.6576 198 74.0513 197.512 73.6118C197.023 73.1724 196.34 72.9526 195.461 72.9526C194.655 72.9526 194 73.1317 193.496 73.4897C192.991 73.8397 192.67 74.332 192.531 74.9668H190.48C190.554 73.8356 191.042 72.9079 191.945 72.1836C192.857 71.4512 194.045 71.085 195.51 71.085C196.999 71.085 198.179 71.4593 199.05 72.208C199.929 72.9567 200.368 73.9618 200.368 75.2231V84H198.354V81.8149H198.305C197.923 82.5392 197.361 83.1211 196.621 83.5605C195.88 84 195.083 84.2197 194.228 84.2197Z" fill="white"/>
<path d="M203.066 84V71.3047H205.068V73.3799H205.117C205.328 72.6719 205.707 72.1144 206.252 71.7075C206.805 71.2925 207.452 71.085 208.193 71.085C208.364 71.085 208.649 71.1134 209.047 71.1704V73.2334C208.819 73.152 208.441 73.1113 207.912 73.1113C207.09 73.1113 206.431 73.384 205.935 73.9292C205.438 74.4744 205.19 75.1947 205.19 76.0898V84H203.066Z" fill="white"/>
<path d="M220.717 75.4673H218.642C218.479 74.7349 218.117 74.1326 217.556 73.6606C217.002 73.1886 216.282 72.9526 215.395 72.9526C214.288 72.9526 213.397 73.3799 212.722 74.2344C212.046 75.0807 211.708 76.2201 211.708 77.6523C211.708 79.109 212.046 80.2565 212.722 81.0947C213.405 81.9329 214.305 82.3521 215.419 82.3521C216.274 82.3521 216.978 82.1405 217.531 81.7173C218.093 81.286 218.467 80.6838 218.654 79.9106H220.742C220.579 81.1802 220.005 82.2178 219.021 83.0234C218.044 83.821 216.84 84.2197 215.407 84.2197C213.633 84.2197 212.213 83.6338 211.147 82.4619C210.081 81.2819 209.548 79.6787 209.548 77.6523C209.548 75.6585 210.081 74.0675 211.147 72.8794C212.213 71.6831 213.625 71.085 215.383 71.085C216.896 71.085 218.125 71.5122 219.069 72.3667C220.021 73.2212 220.571 74.2547 220.717 75.4673Z" fill="white"/>
<path d="M222.805 84V66.3853H224.929V73.3311H224.978C225.336 72.6149 225.856 72.0615 226.54 71.6709C227.232 71.2803 228.054 71.085 229.006 71.085C230.389 71.085 231.48 71.5122 232.277 72.3667C233.075 73.2212 233.474 74.3646 233.474 75.7969V84H231.35V76.1875C231.35 75.1621 231.093 74.3687 230.581 73.8071C230.076 73.2456 229.331 72.9648 228.347 72.9648C227.297 72.9648 226.463 73.2944 225.844 73.9536C225.234 74.6128 224.929 75.4958 224.929 76.6025V84H222.805Z" fill="white"/>
<path d="M239.919 85.75H264.919V60.75H239.919V85.75Z" fill="white"/>
</svg>
